# xmcd CD database file
#
# Track frame offsets:
#	150
#	13640
#	35052
#	63771
#	76365
#	95656
#	113542
#	121271
#	137238
#
# Disc length: 2075 seconds
#
# Revision: 1
# Processed by: cddbd v1.5.1PL2 Copyright (c) Steve Scherf et al.
# Submitted via: jetAudio 5
#
DISCID=6f081909
DTITLE=Bob Korablin Alex Bratetsky - Elephant Blues
DYEAR=1900
DGENRE=
TTITLE0=Violent love
TTITLE1=Stop breaking down
TTITLE2=Good morning little schoo girl
TTITLE3=I want to be loved
TTITLE4=You can't lose what you ain't never had
TTITLE5=Walk in my shadow
TTITLE6=Beer Walking
TTITLE7=Don't go no farther
TTITLE8=Wang dang doodle
EXTD=
EXTT0=
EXTT1=
EXTT2=
EXTT3=
EXTT4=
EXTT5=
EXTT6=
EXTT7=
EXTT8=
PLAYORDER=
